<svg width="20" height="21" viewBox="0 0 20 21" fill="none" xmlns="http://www.w3.org/2000/svg">
<path d="M10 18.5317H9.98833C7.83583 18.4917 1.625 12.88 1.625 7.56502C1.625 5.01169 3.72917 2.77002 6.1275 2.77002C8.03583 2.77002 9.31917 4.08669 9.99917 5.04502C10.6775 4.08835 11.9608 2.77002 13.87 2.77002C16.27 2.77002 18.3733 5.01169 18.3733 7.56585C18.3733 12.8792 12.1617 18.4909 10.0092 18.53H10V18.5317ZM6.12833 4.02085C4.395 4.02085 2.87583 5.67752 2.87583 7.56669C2.87583 12.35 8.7375 17.23 10.0008 17.2817C11.2658 17.23 17.1258 12.3509 17.1258 7.56669C17.1258 5.67752 15.6067 4.02085 13.8733 4.02085C11.7667 4.02085 10.59 6.46752 10.58 6.49169C10.3883 6.96002 9.61667 6.96002 9.42417 6.49169C9.4125 6.46669 8.23667 4.02085 6.12917 4.02085H6.12833Z" fill="#6E767D"/>
</svg>
