<svg width="20" height="21" viewBox="0 0 20 21" fill="none" xmlns="http://www.w3.org/2000/svg">
<path d="M11.705 2.36844L8.24834 2.36011H8.24667C4.60167 2.36011 1.74667 5.21594 1.74667 8.86177C1.74667 12.2768 4.40167 14.8668 7.96751 15.0034V18.1934C7.96751 18.2834 8.00417 18.4318 8.06751 18.5293C8.18584 18.7168 8.38751 18.8184 8.59417 18.8184C8.70917 18.8184 8.82501 18.7868 8.92917 18.7201C9.14917 18.5801 14.3233 15.2701 15.6692 14.1318C17.2542 12.7901 18.2025 10.8234 18.205 8.87177V8.85761C18.2 5.21844 15.3467 2.36844 11.705 2.36761V2.36844ZM14.8608 13.1784C13.9158 13.9784 10.8092 16.0159 9.21751 17.0476V14.3918C9.21751 14.0468 8.93834 13.7668 8.59251 13.7668H8.26251C5.21251 13.7668 2.99751 11.7034 2.99751 8.86177C2.99751 5.91677 5.30417 3.61011 8.24751 3.61011L11.7033 3.61844H11.705C14.6483 3.61844 16.955 5.92344 16.9567 8.86511C16.9542 10.4568 16.1717 12.0684 14.8617 13.1784H14.8608Z" fill="#6E767D"/>
</svg>
