<svg width="20" height="21" viewBox="0 0 20 21" fill="none" xmlns="http://www.w3.org/2000/svg">
<path d="M19.8083 13.5583C19.565 13.3141 19.1692 13.3141 18.925 13.5583L17.075 15.4083V6.87493C17.075 5.1516 15.6725 3.74993 13.95 3.74993H9.075C8.73 3.74993 8.45 4.02993 8.45 4.37493C8.45 4.71993 8.73 4.99993 9.075 4.99993H13.95C14.9833 4.99993 15.825 5.8416 15.825 6.87493V15.4083L13.975 13.5583C13.7308 13.3141 13.335 13.3141 13.0917 13.5583C12.8483 13.8024 12.8467 14.1983 13.0917 14.4416L16.0083 17.3583C16.1292 17.4808 16.2892 17.5416 16.45 17.5416C16.6108 17.5416 16.7692 17.4816 16.8917 17.3583L19.8083 14.4416C20.0533 14.1983 20.0533 13.8024 19.8083 13.5583V13.5583ZM10.925 16.2916H6.05C5.01667 16.2916 4.175 15.4499 4.175 14.4166V5.88326L6.025 7.73326C6.14833 7.85576 6.30833 7.9166 6.46833 7.9166C6.62833 7.9166 6.78833 7.85576 6.91 7.73326C7.15417 7.4891 7.15417 7.09326 6.91 6.84993L3.99333 3.93326C3.74917 3.68826 3.35333 3.68826 3.11 3.93326L0.193333 6.84993C-0.0516675 7.09326 -0.0516675 7.4891 0.193333 7.73326C0.438333 7.97743 0.832499 7.97743 1.07667 7.73326L2.92667 5.88326V14.4166C2.92667 16.1399 4.32917 17.5416 6.05167 17.5416H10.9267C11.2717 17.5416 11.5517 17.2616 11.5517 16.9166C11.5517 16.5716 11.2708 16.2916 10.9267 16.2916H10.925Z" fill="#6E767D"/>
</svg>
