<svg width="20" height="21" viewBox="0 0 20 21" fill="none" xmlns="http://www.w3.org/2000/svg">
<path d="M14.6083 6.72504L10.4417 2.55837C10.1975 2.3142 9.80167 2.3142 9.55833 2.55837L5.39167 6.72504C5.14667 6.9692 5.14667 7.36504 5.39167 7.60837C5.63667 7.8517 6.03083 7.85337 6.275 7.60837L9.375 4.50837V13C9.375 13.345 9.655 13.625 10 13.625C10.345 13.625 10.625 13.345 10.625 13V4.50837L13.725 7.60837C13.8467 7.73087 14.0067 7.7917 14.1667 7.7917C14.3267 7.7917 14.4867 7.7317 14.6083 7.60837C14.8525 7.3642 14.8525 6.9692 14.6083 6.72504V6.72504Z" fill="#6E767D"/>
<path d="M16.4233 18.7867H3.57666C2.52333 18.7867 1.66666 17.9301 1.66666 16.8767V12.1667C1.66666 11.8217 1.94666 11.5417 2.29166 11.5417C2.63666 11.5417 2.91666 11.8217 2.91666 12.1667V16.8767C2.91666 17.2409 3.2125 17.5367 3.57666 17.5367H16.4233C16.7875 17.5367 17.0833 17.2409 17.0833 16.8767V12.1667C17.0833 11.8217 17.3633 11.5417 17.7083 11.5417C18.0533 11.5417 18.3333 11.8217 18.3333 12.1667V16.8767C18.3333 17.9301 17.4767 18.7867 16.4233 18.7867V18.7867Z" fill="#6E767D"/>
</svg>
